Coordinates
version=1
nRows=29
nColumns=22
inDegrees=yes

Units are S.I. units (second, meters, Newtons, ...)
If the header above contains a line with 'inDegrees', this indicates whether rotational values are in degrees (yes) or radians (no).

endheader
time	pelvis_tilt	pelvis_list	pelvis_rotation	pelvis_tx	pelvis_ty	pelvis_tz	hip_flexion_r	hip_adduction_r	hip_rotation_r	knee_angle_r	ankle_angle_r	subtalar_angle_r	hip_flexion_l	hip_adduction_l	hip_rotation_l	knee_angle_l	ankle_angle_l	subtalar_angle_l	lumbar_extension	lumbar_bending	lumbar_rotation
      1.81000000	      2.98204177	     -3.32040494	     60.35993748	      0.83817687	      1.04177163	      0.60964565	     23.09942888	      3.97460319	      7.61343908	    -11.90743881	      6.73023942	      8.68261086	    -12.37679835	      3.80948046	     16.52334590	    -18.60769939	     15.49481579	    -10.04396891	     -2.71759123	      0.32690484	    -10.68137195
      1.82000000	      3.26924675	     -3.41904578	     61.14604865	      0.84402985	      1.04152338	      0.60003932	     23.03689722	      4.38694041	      8.19985602	    -13.01895788	      5.69918390	      8.05270250	    -12.38334538	      3.38513140	     16.89983958	    -19.80608136	     14.89398768	     -9.05168080	     -2.55586461	      0.62820047	    -10.87742485
      1.83000000	      3.62653157	     -3.52253329	     61.95644098	      0.84974657	      1.04153522	      0.59025612	     22.93884773	      4.83306624	      8.70578907	    -14.14058463	      4.75125680	      7.59045666	    -12.28963864	      2.91297698	     17.16920005	    -21.20650727	     14.16504062	     -7.93624742	     -2.40434550	      1.01975784	    -11.08965017
      1.84000000	      4.01648001	     -3.61438470	     62.75571742	      0.85542354	      1.04182336	      0.58028592	     22.79327475	      5.27988195	      9.10822510	    -15.23423808	      3.98245269	      7.24811702	    -12.11296716	      2.43740689	     17.34470847	    -22.76299951	     13.18890727	     -6.57916964	     -2.24643872	      1.44107928	    -11.28194329
      1.85000000	      4.40125416	     -3.67353984	     63.53148966	      0.86099358	      1.04236529	      0.57011749	     22.60432326	      5.67531732	      9.35169046	    -16.30535492	      3.48670287	      6.98956037	    -11.85246662	      2.00468680	     17.40174966	    -24.46039312	     11.92712185	     -4.88652922	     -2.08674889	      1.85590906	    -11.42486225
      1.86000000	      4.78948359	     -3.71684082	     64.31858753	      0.86641714	      1.04313333	      0.55981725	     22.33384900	      6.01738489	      9.41147352	    -17.25002853	      3.20853751	      6.80128655	    -11.45617945	      1.58683114	     17.32752817	    -26.35219339	     10.41806932	     -3.00492649	     -1.92191747	      2.27173748	    -11.56336235
      1.87000000	      5.17512120	     -3.74855440	     65.12063782	      0.87168814	      1.04407982	      0.54943965	     21.98733705	      6.30417859	      9.25403784	    -18.06355451	      3.19404253	      6.62299758	    -10.91064663	      1.17688040	     17.11877421	    -28.42701443	      8.67242776	     -0.94765492	     -1.75022069	      2.67949649	    -11.68585087
      1.88000000	      5.54632010	     -3.76564872	     65.93449678	      0.87679214	      1.04519577	      0.53908599	     21.54482690	      6.53438783	      8.93707731	    -18.69892118	      3.36936103	      6.41669547	    -10.20755927	      0.77992830	     16.78744453	    -30.66872343	      6.70284957	      1.22263402	     -1.58468292	      3.05985228	    -11.78576479
      1.89000000	      5.91812088	     -3.77275267	     66.77621913	      0.88170612	      1.04645574	      0.52882220	     20.99094230	      6.72840865	      8.46711042	    -19.12576473	      3.67811820	      6.15401734	     -9.33414993	      0.36754506	     16.34109103	    -33.08134528	      4.54139440	      3.35163017	     -1.43688615	      3.42670571	    -11.85329745
      1.90000000	      6.29185443	     -3.76293002	     67.62865916	      0.88644425	      1.04784072	      0.51873252	     20.31607026	      6.90234317	      7.88272803	    -19.33088908	      4.06433935	      5.83131013	     -8.29753563	     -0.06130520	     15.78747852	    -35.65240933	      2.25041877	      5.29088628	     -1.32877909	      3.77240299	    -11.87351711
      1.91000000	      6.68459455	     -3.73721463	     68.50625236	      0.89097456	      1.04931131	      0.50884691	     19.52180285	      7.07492307	      7.17345582	    -19.31751162	      4.47532911	      5.47187883	     -7.09931886	     -0.52867565	     15.16246164	    -38.38300244	     -0.12528586	      6.86728097	     -1.27259053	      4.11840193	    -11.85285308
      1.92000000	      7.07407338	     -3.68084996	     69.37029039	      0.89534920	      1.05085328	      0.49921898	     18.62092125	      7.24585881	      6.42215041	    -19.11976100	      4.87107283	      5.08965669	     -5.76474259	     -1.00150715	     14.48657180	    -41.23694163	     -2.58113068	      8.11371920	     -1.28035261	      4.43333480	    -11.75918733
      1.93000000	      7.51660538	     -3.59698108	     70.26120804	      0.89951996	      1.05241922	      0.48978475	     17.60588014	      7.45714246	      5.55230261	    -18.74896592	      5.26824431	      4.79280995	     -4.32204207	     -1.54310708	     13.80808821	    -44.20316207	     -5.04222455	      8.80973305	     -1.36291115	      4.78486045	    -11.62075778
      1.94000000	      7.95394477	     -3.48422967	     71.11979410	      0.90356021	      1.05397619	      0.48061018	     16.53070152	      7.68652479	      4.71041519	    -18.27257484	      5.62989682	      4.52550581	     -2.78635002	     -2.07807559	     13.15310277	    -47.21890476	     -7.51481977	      9.28763801	     -1.50324475	      5.11218685	    -11.40064302
      1.95000000	      8.38728804	     -3.34784225	     71.93883615	      0.90749201	      1.05549460	      0.47166161	     15.41853792	      7.94005469	      3.91183470	    -17.72868247	      5.96786147	      4.31270661	     -1.18831695	     -2.60071200	     12.55037046	    -50.22792092	     -9.94536651	      9.58174399	     -1.68826128	      5.42051625	    -11.09908324
      1.96000000	      8.78354617	     -3.20141587	     72.69675163	      0.91132109	      1.05694124	      0.46291438	     14.31782564	      8.19416342	      3.20182044	    -17.16869628	      6.29339435	      4.14514601	      0.45653496	     -3.06776432	     12.00545379	    -53.16221575	    -12.31256088	      9.67950481	     -1.88540142	      5.68568997	    -10.68981885
      1.97000000	      9.18354595	     -3.00565943	     73.40165853	      0.91505109	      1.05840226	      0.45430041	     13.16565576	      8.47379532	      2.59455556	    -16.58271285	      6.59981530	      4.11026144	      2.05331698	     -3.49868672	     11.54985310	    -55.95611039	    -14.48883974	      9.80678133	     -2.14343060	      5.94089489	    -10.20840695
      1.98000000	      9.52067372	     -2.81824532	     74.03404968	      0.91867702	      1.05976533	      0.44584459	     12.07296635	      8.72946626	      2.10268587	    -16.03260030	      6.89001742	      4.10495421	      3.66051307	     -3.83173713	     11.16268042	    -58.57078428	    -16.44877225	      9.75204275	     -2.37528592	      6.13571932	     -9.63814777
      1.99000000	      9.79860756	     -2.61899740	     74.59820860	      0.92219189	      1.06108004	      0.43748330	     11.00414683	      8.95177981	      1.72092311	    -15.50334927	      7.16614473	      4.12830729	      5.22310654	     -4.05994588	     10.83861344	    -60.95632248	    -18.08265035	      9.54521140	     -2.59852355	      6.26911606	     -8.99476879
      2.00000000	     10.00992543	     -2.41384618	     75.10334717	      0.92557100	      1.06233941	      0.42918662	      9.96329395	      9.12580793	      1.41559183	    -14.99202699	      7.43103430	      4.15311114	      6.73234430	     -4.17616581	     10.56551192	    -63.08894730	    -19.29122920	      9.12341234	     -2.80266407	      6.33771399	     -8.30618640
      2.01000000	     10.15272099	     -2.20077212	     75.56571707	      0.92877933	      1.06354195	      0.42093204	      8.94269688	      9.24100483	      1.15419713	    -14.48985509	      7.68942496	      4.15753336	      8.17859911	     -4.17927174	     10.33350081	    -64.95933130	    -19.99349981	      8.47073339	     -2.98834524	      6.34095998	     -7.59750299
      2.02000000	     10.24536188	     -1.98661077	     76.00768535	      0.93181300	      1.06468009	      0.41269841	      7.93464781	      9.31140944	      0.88263976	    -13.97728958	      7.91591529	      4.13457462	      9.56589794	     -4.10342163	     10.13121161	    -66.56818806	    -20.15156886	      7.66517699	     -3.15254330	      6.30108273	     -6.89777184
      2.03000000	     10.24576670	     -1.77206615	     76.43072309	      0.93462633	      1.06572385	      0.40451604	      6.96086030	      9.29086888	      0.63254313	    -13.47904449	      8.18393390	      4.07520402	     10.90312501	     -3.90572695	      9.93061333	    -67.91410351	    -19.76809954	      6.54056172	     -3.29412804	      6.17535771	     -6.21784231
      2.04000000	     10.20542354	     -1.56842568	     76.86581194	      0.93724347	      1.06666816	      0.39639169	      6.00957262	      9.23362792	      0.35912388	    -12.96830695	      8.43163403	      3.99326228	     12.20299720	     -3.65473267	      9.75059089	    -69.01601154	    -18.88459129	      5.34993135	     -3.41650206	      6.02050594	     -5.58632746
      2.05000000	     10.12067713	     -1.38223963	     77.31601475	      0.93967161	      1.06749613	      0.38831916	      5.09506336	      9.13564791	      0.04480874	    -12.46001750	      8.66986075	      3.89193079	     13.47712970	     -3.36663057	      9.55771618	    -69.87630536	    -17.59441423	      4.10307996	     -3.51285831	      5.83243897	     -5.00875282
      2.06000000	      9.99206657	     -1.21741271	     77.77630323	      0.94193494	      1.06820657	      0.38031478	      4.22161001	      9.00004777	     -0.28844418	    -11.95705182	      8.89902152	      3.78067745	     14.73216721	     -3.05271194	      9.33515083	    -70.49991455	    -16.01944825	      2.86300287	     -3.58397926	      5.61059465	     -4.48506680
      2.07000000	      9.84146058	     -1.07254623	     78.25204194	      0.94404246	      1.06878947	      0.37240284	      3.39184009	      8.84967652	     -0.63659407	    -11.47662421	      9.12453372	      3.66354663	     15.97121232	     -2.74312651	      9.08383233	    -70.90333027	    -14.28718276	      1.66902148	     -3.64508090	      5.37646869	     -4.00757420
      2.08000000	      9.67797457	     -0.94536980	     78.73436748	      0.94603389	      1.06925038	      0.36457828	      2.60010755	      8.69548488	     -0.98997731	    -11.01994608	      9.34960431	      3.54452756	     17.19003216	     -2.46482710	      8.77886719	    -71.09036134	    -12.50659208	      0.54709629	     -3.70226199	      5.13565979	     -3.56665852
      2.09000000	      9.51097337	     -0.82995271	     79.21344223	      0.94793229	      1.06959740	      0.35683641	      1.83784236	      8.54700800	     -1.33385695	    -10.58812577	      9.57256514	      3.42605937	     18.37980599	     -2.23910478	      8.40314106	    -71.06851151	    -10.76768194	     -0.48147262	     -3.76600812	      4.89595645	     -3.15213970
